<?xml version="1.0" standalone="no"?>
<!DOCTYPE svg PUBLIC "-//W3C//DTD SVG 20010904//EN"
 "http://www.w3.org/TR/2001/REC-SVG-20010904/DTD/svg10.dtd">
<svg version="1.0" xmlns="http://www.w3.org/2000/svg"
 width="20pt" height="30pt" viewBox="0 0 50.000000 50.000000"
 preserveAspectRatio="xMidYMid meet">

<g transform="translate(0.000000,50.000000) scale(0.100000,-0.100000)"
fill="#000000" stroke="none">
<path d="M311 445 c-108 -51 -280 -252 -281 -329 0 -22 62 -86 84 -86 9 0 32
25 53 55 36 55 36 56 21 88 l-16 32 60 62 61 61 33 -15 c33 -16 34 -16 89 20
30 21 55 44 55 53 0 22 -64 84 -86 84 -11 0 -43 -12 -73 -25z"/>
</g>
</svg>
