<?xml version="1.0" standalone="no"?>
<!DOCTYPE svg PUBLIC "-//W3C//DTD SVG 20010904//EN"
 "http://www.w3.org/TR/2001/REC-SVG-20010904/DTD/svg10.dtd">
<svg version="1.0" xmlns="http://www.w3.org/2000/svg"
 width="50.000000pt" height="50.000000pt" viewBox="0 0 50.000000 50.000000"
 preserveAspectRatio="xMidYMid meet">

<g transform="translate(0.000000,50.000000) scale(0.100000,-0.100000)"
fill="#000000" stroke="none">
<path d="M0 470 c0 -5 6 -10 14 -10 33 0 46 -30 46 -108 0 -111 35 -169 113
-188 25 -6 27 -4 27 23 0 24 -7 32 -32 44 -41 18 -58 50 -58 112 0 57 -21 111
-48 126 -26 14 -62 14 -62 1z"/>
<path d="M200 470 c0 -5 5 -10 10 -10 6 0 10 -77 10 -210 0 -133 -4 -210 -10
-210 -5 0 -10 -4 -10 -10 0 -5 23 -10 50 -10 28 0 50 5 50 10 0 6 -4 10 -10
10 -6 0 -10 77 -10 210 0 133 4 210 10 210 6 0 10 5 10 10 0 6 -22 10 -50 10
-27 0 -50 -4 -50 -10z"/>
<path d="M437 469 c-27 -16 -47 -70 -47 -126 0 -62 -17 -94 -58 -112 -25 -12
-32 -20 -32 -44 0 -27 2 -29 28 -23 77 19 112 77 112 188 0 78 13 108 46 108
8 0 14 5 14 10 0 13 -40 12 -63 -1z"/>
</g>
</svg>
