<?xml version="1.0" standalone="no"?>
<!DOCTYPE svg PUBLIC "-//W3C//DTD SVG 20010904//EN"
 "http://www.w3.org/TR/2001/REC-SVG-20010904/DTD/svg10.dtd">
<svg version="1.0" xmlns="http://www.w3.org/2000/svg"
 width="50.000000pt" height="50.000000pt" viewBox="0 0 50.000000 50.000000"
 preserveAspectRatio="xMidYMid meet">

<g transform="translate(0.000000,50.000000) scale(0.100000,-0.100000)"
fill="#000000" stroke="none">
<path d="M16 414 c-31 -30 -9 -84 34 -84 24 0 50 26 50 50 0 24 -26 50 -50 50
-10 0 -26 -7 -34 -16z"/>
<path d="M83 311 c-4 -17 -8 -18 -24 -8 -24 15 -53 -1 -57 -30 -2 -14 21 -39
84 -91 l87 -73 150 3 c130 3 151 5 161 20 8 13 8 23 -1 37 -8 13 -8 22 -1 29
20 20 0 39 -66 65 -62 25 -67 26 -107 12 -61 -22 -81 -19 -130 20 -50 39 -88
46 -96 16z m336 -117 c2 -2 -22 -4 -55 -3 -42 0 -53 3 -39 9 18 8 83 3 94 -6z"/>
<path d="M140 79 c-15 -26 -13 -29 19 -29 17 0 31 6 35 16 8 22 9 21 -19 27
-18 3 -29 -1 -35 -14z"/>
<path d="M434 74 c3 -9 6 -18 6 -20 0 -2 14 -4 31 -4 24 0 30 3 25 16 -3 9 -6
18 -6 20 0 2 -14 4 -31 4 -24 0 -30 -3 -25 -16z"/>
</g>
</svg>
