<?xml version="1.0" standalone="no"?>
<!DOCTYPE svg PUBLIC "-//W3C//DTD SVG 20010904//EN"
 "http://www.w3.org/TR/2001/REC-SVG-20010904/DTD/svg10.dtd">
<svg version="1.0" xmlns="http://www.w3.org/2000/svg"
 width="30pt" height="30pt" viewBox="0 0 50.000000 50.000000"
 preserveAspectRatio="xMidYMid meet">

<g transform="translate(0.000000,50.000000) scale(0.100000,-0.100000)"
fill="#000000" stroke="none">
<path d="M156 470 c-61 -19 -115 -99 -116 -173 0 -21 13 -69 30 -107 19 -43
30 -85 30 -114 l0 -46 110 0 c107 0 110 1 110 23 0 17 6 22 26 24 36 2 63 32
71 78 3 22 16 47 27 56 l21 17 -23 41 c-13 22 -29 62 -37 89 -8 26 -25 58 -37
70 -50 46 -138 64 -212 42z m128 -96 c9 -8 16 -24 16 -34 0 -22 -26 -50 -46
-50 -8 0 -14 -10 -14 -25 0 -18 5 -25 20 -25 11 0 20 -4 20 -10 0 -5 -9 -10
-20 -10 -11 0 -20 -4 -20 -10 0 -5 9 -10 20 -10 11 0 20 -4 20 -10 0 -5 -9
-10 -20 -10 -11 0 -20 -7 -20 -15 0 -8 -4 -15 -10 -15 -6 0 -10 30 -10 70 0
54 -3 70 -14 70 -20 0 -46 28 -46 50 0 10 7 26 16 34 20 21 88 21 108 0z"/>
<path d="M184 356 c-13 -33 4 -47 48 -44 38 3 43 6 43 28 0 22 -5 25 -43 28
-31 2 -44 -1 -48 -12z"/>
</g>
</svg>
